<?xml version="1.0" encoding="UTF-8"?>
<svg version="1.1" viewBox="0 0 1024 1024" width="1024" height="1024" xmlns="http://www.w3.org/2000/svg">
<path transform="translate(408,331)" d="m0 0h537l4 4 1 39v17l-3 5-2 1-57 1-32 3-29 5-25 6-27 8-19 7-16 7-17 8-22 13-17 12-15 13-9 9-7 10-5 11-3 13v14l5 19 7 12 11 12 11 8 12 7 20 8 19 6 18 4 23 4 4 4 2 21v30l-3 3h-101l-15-10-8-5h-234l-14 11-5 4h-106l-1-3 1-28 3-22 5-5 23-3 23-4 27-7 21-8 17-9 11-9 7-7 7-12 4-14v-20l-4-15-5-9-9-10-9-6-12-5-13-3-22-3-19-2-37-8-30-8-29-9-35-12-31-12-26-11-34-17-19-11-21-14-10-8-7-6-6-9-1-7 2-3h23l285 14 14 1h18l2-3 1-14z" fill="#FD651E"/>
</svg>
